# xmcd
#
# Track frame offsets:
#	150
#	14967
#	27165
#	41519
#	57463
#	70957
#	96188
#	110579
#	128706
#	142825
#	163233
#	176093
#
# Disc length: 2526 seconds
#
# Revision: 1
# Processed by: cddbd v1.5.2PL0 Copyright (c) Steve Scherf et al.
# Submitted via: audiograbber 1.83.01
#
DISCID=ad09dc0c
DTITLE=Sara Storer - Lovegrass
DYEAR=2013
DGENRE=Country
TTITLE0=Come On Rain
TTITLE1=Lovegrass
TTITLE2=Canoe
TTITLE3=Heart and Sold
TTITLE4=Shuffling Mess
TTITLE5=Pozie (with John Williamson)
TTITLE6=You're My Everything
TTITLE7=Next Year
TTITLE8=Sun Shower
TTITLE9=Chapters
TTITLE10=Willie Paroo
TTITLE11=Apple Seeds (with Greg Storer)
EXTD=
EXTT0=
EXTT1=
EXTT2=
EXTT3=
EXTT4=
EXTT5=
EXTT6=
EXTT7=
EXTT8=
EXTT9=
EXTT10=
EXTT11=
PLAYORDER=
